# xmcd
#
# Track frame offsets: 
#        150
#        51299
#        95506
#        116934
#
# Disc length: 2546 seconds
#
# Revision: 0
# Processed by: cddbd v1.5.2PL0 Copyright (c) Steve Scherf et al.
# Submitted via: ExactAudioCopy v0.99pb4
#
DISCID=3409f004
DTITLE=Allman Brothers Band - 1973-12-31 Live at the Cow Palace cd4
DYEAR=1973
DGENRE=Blues
TTITLE0=Save my life - Blues Jam
TTITLE1=You don't love me
TTITLE2=Will the circle be unbroken - 
TTITLE3=Mountain Jam
EXTD=
EXTT0=
EXTT1=
EXTT2=
EXTT3=
PLAYORDER=
